<?xml version="1.0" encoding="utf-8"?>
<!-- Generator: Adobe Illustrator 16.0.0, SVG Export Plug-In . SVG Version: 6.00 Build 0)  -->
<!DOCTYPE svg PUBLIC "-//W3C//DTD SVG 1.1//EN" "http://www.w3.org/Graphics/SVG/1.1/DTD/svg11.dtd">
<svg version="1.1" id="Calque_1" xmlns="http://www.w3.org/2000/svg" xmlns:xlink="http://www.w3.org/1999/xlink" x="0px" y="0px"
	 width="189.049px" height="78.051px" viewBox="0 0 189.049 78.051" enable-background="new 0 0 189.049 78.051"
	 xml:space="preserve">
<g>
	<g>
		<g>
			<g>
				<g>
					<path fill="#1EC6D8" d="M65.733,60.535c-0.154-0.486-0.255-1.049-0.303-1.688c-0.59,0.666-1.371,1.194-2.339,1.592
						c-0.972,0.396-2.097,0.593-3.373,0.593c-2.172,0-3.762-0.478-4.772-1.438c-1.009-0.957-1.513-2.204-1.513-3.734
						c0-1.355,0.215-2.438,0.651-3.241c0.433-0.805,1.03-1.437,1.799-1.897c0.768-0.459,1.681-0.798,2.741-1.015
						c1.063-0.215,2.218-0.414,3.469-0.594c1.252-0.179,2.095-0.415,2.531-0.708c0.431-0.295,0.649-0.773,0.649-1.438
						c0-0.613-0.287-1.093-0.861-1.437c-0.576-0.347-1.348-0.518-2.319-0.518c-1.151,0-1.973,0.255-2.472,0.765
						c-0.499,0.513-0.813,1.189-0.939,2.032h-4.636c0.025-0.97,0.184-1.865,0.477-2.683c0.294-0.815,0.769-1.519,1.418-2.109
						c0.653-0.585,1.502-1.039,2.549-1.358c1.043-0.32,2.318-0.479,3.822-0.479c1.476,0,2.729,0.167,3.762,0.498
						c1.033,0.333,1.86,0.812,2.485,1.437c0.624,0.628,1.073,1.404,1.354,2.338c0.279,0.936,0.42,1.987,0.42,3.162v11.921H65.733z
						 M65.389,51.297c-0.256,0.258-0.626,0.462-1.11,0.614c-0.485,0.152-1.188,0.32-2.108,0.499c-1.431,0.28-2.415,0.638-2.95,1.073
						c-0.538,0.436-0.806,1.061-0.806,1.879c0,1.404,0.806,2.107,2.413,2.107c0.639,0,1.232-0.109,1.783-0.328
						c0.549-0.214,1.021-0.51,1.418-0.881c0.397-0.37,0.713-0.804,0.958-1.303c0.245-0.498,0.365-1.029,0.365-1.593L65.389,51.297z"
						/>
					<path fill="#1EC6D8" d="M72.365,60.535V34.779h4.984v25.756H72.365z"/>
					<path fill="#1EC6D8" d="M79.301,60.535V34.779h4.986v25.756H79.301z"/>
					<path fill="#1EC6D8" d="M95.498,61.032c-1.533,0-2.897-0.243-4.097-0.728c-1.198-0.486-2.212-1.165-3.04-2.038
						c-0.829-0.868-1.457-1.92-1.892-3.146c-0.435-1.229-0.653-2.575-0.653-4.033c0-1.482,0.225-2.842,0.67-4.07
						c0.446-1.229,1.091-2.278,1.933-3.149c0.841-0.869,1.855-1.54,3.04-2.015c1.188-0.476,2.532-0.709,4.039-0.709
						c1.475,0,2.801,0.233,3.976,0.709c1.169,0.475,2.174,1.138,3.002,1.996c0.827,0.856,1.466,1.899,1.912,3.13
						c0.445,1.228,0.674,2.599,0.674,4.108c0,1.512-0.229,2.874-0.674,4.09c-0.446,1.215-1.085,2.259-1.912,3.129
						c-0.828,0.872-1.836,1.543-3.02,2.018C98.266,60.795,96.949,61.032,95.498,61.032z M95.515,56.855
						c3.039,0,4.562-1.918,4.562-5.749c0-3.808-1.522-5.71-4.562-5.71c-3.041,0-4.563,1.902-4.563,5.71
						C90.952,54.938,92.474,56.855,95.515,56.855z"/>
				</g>
			</g>
			<g>
				<path fill="#F962A9" d="M106.706,60.535V34.779h4.907v9.352c1.403-1.968,3.268-2.951,5.597-2.951
					c1.224,0,2.315,0.237,3.275,0.711c0.958,0.47,1.771,1.141,2.434,2.01c0.665,0.871,1.167,1.897,1.514,3.086
					c0.344,1.189,0.517,2.496,0.517,3.929c0,1.585-0.203,3.004-0.611,4.254c-0.41,1.251-0.974,2.312-1.688,3.183
					c-0.716,0.867-1.578,1.53-2.587,1.993c-1.01,0.46-2.104,0.688-3.276,0.688c-2.353,0-4.103-0.932-5.251-2.797l-0.042,2.3H106.706
					z M115.637,56.97c1.251,0,2.271-0.53,3.064-1.59c0.791-1.061,1.188-2.435,1.188-4.121c0-3.885-1.433-5.825-4.29-5.825
					c-2.79,0-4.179,2.044-4.179,6.132c0,1.611,0.406,2.915,1.204,3.911C113.433,56.472,114.434,56.97,115.637,56.97z"/>
				<path fill="#F962A9" d="M131.16,52.41c0.076,1.43,0.491,2.567,1.245,3.41c0.75,0.844,1.743,1.266,2.968,1.266
					c0.816,0,1.541-0.186,2.164-0.555c0.628-0.374,1.032-0.891,1.21-1.554h5.137c-0.587,1.942-1.612,3.438-3.066,4.484
					c-1.458,1.047-3.193,1.57-5.21,1.57c-6.289,0-9.43-3.424-9.43-10.271c0-1.458,0.205-2.771,0.613-3.948
					c0.408-1.173,1.001-2.183,1.779-3.028c0.779-0.842,1.73-1.487,2.857-1.935c1.127-0.444,2.412-0.67,3.87-0.67
					c2.914,0,5.116,0.934,6.612,2.798c1.493,1.865,2.24,4.675,2.24,8.433H131.16z M139.014,49.268
					c-0.024-0.692-0.147-1.298-0.363-1.821c-0.217-0.523-0.503-0.957-0.863-1.304c-0.356-0.345-0.765-0.6-1.229-0.765
					c-0.456-0.167-0.928-0.251-1.418-0.251c-0.993,0-1.857,0.363-2.582,1.092c-0.73,0.729-1.145,1.745-1.244,3.049H139.014z
					 M132.615,39.302l-1.188-2.108l7.932-4.638l1.802,3.143L132.615,39.302z"/>
				<path fill="#F962A9" d="M145.683,60.535V34.779h4.907v9.352c1.403-1.968,3.271-2.951,5.598-2.951
					c1.224,0,2.317,0.237,3.274,0.711c0.958,0.47,1.77,1.141,2.433,2.01c0.665,0.871,1.169,1.897,1.515,3.086
					c0.345,1.189,0.521,2.496,0.521,3.929c0,1.585-0.207,3.004-0.616,4.254c-0.411,1.251-0.973,2.312-1.687,3.183
					c-0.714,0.867-1.578,1.53-2.587,1.993c-1.007,0.46-2.103,0.688-3.276,0.688c-2.352,0-4.105-0.932-5.252-2.797l-0.04,2.3H145.683
					z M154.615,56.97c1.251,0,2.275-0.53,3.064-1.59c0.794-1.061,1.188-2.435,1.188-4.121c0-3.885-1.433-5.825-4.289-5.825
					c-2.789,0-4.18,2.044-4.18,6.132c0,1.611,0.401,2.915,1.206,3.911C152.41,56.472,153.413,56.97,154.615,56.97z"/>
				<path fill="#F962A9" d="M170.137,52.41c0.075,1.43,0.491,2.567,1.244,3.41c0.754,0.844,1.744,1.266,2.973,1.266
					c0.814,0,1.538-0.186,2.162-0.555c0.623-0.374,1.03-0.891,1.209-1.554h5.135c-0.586,1.942-1.607,3.438-3.065,4.484
					c-1.455,1.047-3.196,1.57-5.211,1.57c-6.288,0-9.428-3.422-9.428-10.271c0-1.458,0.201-2.771,0.611-3.948
					c0.406-1.173,1.001-2.183,1.783-3.028c0.776-0.842,1.729-1.487,2.854-1.935c1.124-0.444,2.416-0.67,3.871-0.67
					c2.911,0,5.115,0.934,6.611,2.798c1.497,1.865,2.241,4.675,2.241,8.433H170.137z M177.996,49.268
					c-0.027-0.692-0.148-1.298-0.367-1.821c-0.218-0.523-0.502-0.957-0.862-1.304c-0.356-0.345-0.769-0.6-1.226-0.765
					c-0.46-0.167-0.934-0.251-1.418-0.251c-0.997,0-1.861,0.363-2.586,1.092c-0.73,0.729-1.145,1.745-1.248,3.049H177.996z
					 M171.591,39.302l-1.187-2.108l7.935-4.638l1.799,3.143L171.591,39.302z"/>
			</g>
			<g>
				<path fill="#F962A9" d="M37.388,5.567c-18.484,0-33.465,14.982-33.465,33.462c0,13.269,7.719,24.73,18.907,30.144l0,0
					c14.704,2.09,24.831-2.594,31.498-8.293c-0.093-0.075-0.161-0.182-0.267-0.235c-2.986-1.578-2.446-5.714-2.15-7.007
					c0.832-3.293,3.203-18.702-21.044-30.133c0,0,7.995-9.213-6.084-13.732c0,0,9.733,4.172,3.302,15.298
					c0,0,27.514,11.84,16.889,33.231c-3.362,1.553-7.104,2.418-11.05,2.418c-6.17,0-11.841-2.116-16.333-5.664
					c1.468-3.008,3.304-11.297-7.97-27.118c0,0,10.716,19.893,5.825,25.232c-4.877-4.788-7.905-11.457-7.905-18.832
					c0-14.57,11.811-26.382,26.383-26.382c14.57,0,26.383,11.812,26.383,26.382c0,2.02-0.228,3.983-0.654,5.872
					c0.804-0.127,1.692-0.189,2.659-0.189c1.603,0,3,0.188,4.152,0.561c1.226,0.394,2.235,0.983,3,1.751
					c0.415,0.414,0.766,0.885,1.057,1.404c0.215-1.536,0.329-3.108,0.329-4.707C70.85,20.551,55.867,5.567,37.388,5.567z"/>
				<path fill="#F962A9" d="M55.984,61.832c-9.088,9.094-20.25,10.521-20.25,10.521l-0.294,0.087
					c0.645,0.035,1.295,0.055,1.948,0.055c9.431,0,17.947-3.9,24.029-10.177c-0.54,0.079-1.107,0.118-1.699,0.118
					C58.267,62.436,57.02,62.233,55.984,61.832z"/>
			</g>
		</g>
	</g>
</g>
</svg>
